<?xml version="1.0" standalone="no"?>
<!DOCTYPE svg PUBLIC "-//W3C//DTD SVG 20010904//EN"
 "http://www.w3.org/TR/2001/REC-SVG-20010904/DTD/svg10.dtd">
<svg version="1.0" xmlns="http://www.w3.org/2000/svg"
 width="1024.000000pt" height="1024.000000pt" viewBox="0 0 1024.000000 1024.000000"
 preserveAspectRatio="xMidYMid meet">

<g transform="translate(0.000000,1024.000000) scale(0.100000,-0.100000)"
fill="#eeddcc" stroke="none">
<path d="M5119 8077 c-121 -51 -185 -112 -219 -211 -32 -90 -22 -125 40 -141
37 -9 80 27 80 66 0 38 30 96 67 130 110 103 309 98 406 -10 61 -68 71 -147
27 -219 l-20 -33 -78 8 c-42 4 -165 8 -272 7 -156 -1 -214 -5 -290 -21 -184
-40 -263 -85 -289 -166 l-12 -34 -112 -6 c-869 -49 -1646 -177 -2289 -378
-130 -41 -171 -62 -95 -48 306 54 376 64 684 104 521 67 1381 134 1726 135
l47 0 0 -59 0 -59 106 -133 c124 -155 215 -261 220 -256 2 2 8 28 14 58 14 80
32 139 40 139 5 0 39 -48 77 -107 37 -60 82 -130 99 -156 l31 -48 -53 -207
c-30 -114 -94 -362 -143 -552 -49 -190 -110 -429 -137 -531 l-48 -186 115
-169 c283 -420 334 -494 340 -494 6 0 76 101 362 524 l89 131 -37 145 c-21 80
-107 412 -191 739 l-153 595 101 158 c56 87 105 158 109 158 8 0 35 -96 45
-160 l7 -45 45 50 c25 28 97 115 160 195 63 80 121 150 129 156 10 9 11 18 3
38 -5 15 -10 39 -10 53 l0 25 208 -6 c206 -7 686 -37 897 -56 305 -28 726 -75
895 -100 230 -34 426 -66 465 -76 14 -3 25 -2 25 3 0 4 -33 19 -72 31 -620
197 -1357 324 -2200 380 l-253 17 -25 53 c-22 46 -33 56 -86 83 l-61 30 20 42
c29 59 33 142 12 209 -14 39 -34 69 -79 114 -85 85 -144 107 -296 111 -102 3
-121 1 -171 -20z m291 -425 c30 -4 54 -11 54 -17 -1 -5 -24 -21 -50 -34 -40
-20 -69 -25 -154 -29 -119 -5 -140 -15 -140 -69 l0 -33 -173 0 -173 0 -67 36
c-36 19 -69 39 -72 43 -13 22 209 92 330 104 67 6 386 5 445 -1z m275 -74 c25
-12 45 -24 45 -27 0 -4 -33 -23 -73 -43 -70 -37 -77 -38 -173 -38 l-99 1 50
17 c61 21 133 62 159 91 24 26 35 26 91 -1z m-925 -117 c74 -38 190 -90 258
-116 l123 -48 -94 -96 c-106 -109 -164 -210 -194 -336 -9 -38 -18 -72 -19 -74
-4 -5 -56 55 -187 218 l-118 146 7 90 c3 50 10 109 15 132 11 51 55 153 66
153 4 0 69 -31 143 -69z m1009 31 c30 -59 49 -139 56 -239 l7 -92 -67 -87
c-95 -121 -225 -278 -234 -282 -4 -1 -15 32 -25 74 -32 139 -78 217 -204 345
l-84 87 58 21 c117 43 251 103 349 155 55 30 106 54 112 55 7 1 21 -16 32 -37z"/>
<path d="M5680 6766 c0 -9 11 -18 28 -22 156 -34 238 -94 271 -196 9 -28 13
-267 14 -935 l2 -898 -23 -75 c-81 -259 -273 -445 -538 -522 -70 -20 -100 -23
-259 -23 -176 1 -182 1 -275 33 -259 87 -428 262 -502 519 l-23 78 3 875 4
875 26 48 c31 58 115 137 189 179 53 30 64 45 41 53 -7 2 -219 5 -470 7 -323
2 -458 0 -458 -8 0 -5 34 -21 76 -34 108 -33 179 -82 210 -146 l25 -52 3 -808
c4 -884 7 -952 61 -1084 115 -280 370 -524 666 -637 54 -21 99 -40 99 -43 0
-10 -817 23 -1095 45 -501 39 -935 86 -1280 140 -55 8 -129 20 -165 25 -36 6
-101 17 -145 25 -167 30 -120 8 133 -66 232 -67 250 -71 437 -114 519 -118
1060 -191 1765 -237 259 -17 1209 -17 1475 0 737 47 1312 127 1855 258 270 66
568 155 539 161 -9 2 -81 -7 -160 -21 -144 -25 -453 -69 -597 -86 -42 -5 -138
-16 -212 -24 -129 -15 -219 -24 -485 -46 -190 -16 -223 -18 -525 -35 -255 -15
-869 -34 -879 -28 -2 1 9 8 25 14 90 37 201 93 253 128 215 147 365 373 443
671 21 83 22 100 27 910 l6 825 26 55 c14 31 40 72 58 92 33 38 121 88 153 88
11 0 18 7 18 20 0 20 -7 20 -389 20 -214 0 -403 3 -420 6 -24 5 -31 3 -31 -10z"/>
<path d="M7405 6550 c-186 -20 -390 -79 -507 -147 -76 -44 -199 -166 -260
-260 -290 -437 -272 -970 44 -1307 123 -132 259 -217 438 -274 155 -49 223
-57 465 -56 212 0 279 5 559 41 l129 16 27 61 c48 106 73 235 63 331 -7 64
-22 70 -47 19 -64 -135 -173 -262 -266 -309 -204 -103 -532 -90 -774 32 -150
75 -301 202 -391 328 -135 189 -206 433 -191 656 26 406 275 683 691 770 94
20 336 17 420 -5 233 -60 394 -207 451 -414 9 -34 21 -62 25 -62 14 0 57 309
61 440 l3 75 -75 8 c-41 5 -163 20 -270 34 -211 27 -462 37 -595 23z"/>
<path d="M2092 6418 c-18 -57 -36 -127 -42 -156 -9 -51 -4 -112 10 -112 4 0
20 22 37 48 38 62 110 120 169 138 35 10 111 14 301 14 l253 0 0 -812 c0 -447
-5 -842 -10 -877 -11 -81 -34 -106 -122 -132 -37 -12 -68 -24 -68 -27 0 -4
164 -7 365 -7 201 -1 362 2 357 5 -4 4 -32 14 -63 23 -66 20 -139 80 -172 141
l-22 41 -3 823 -3 822 215 0 c220 0 293 -8 357 -41 47 -24 92 -76 114 -133 10
-25 21 -46 25 -46 19 0 32 76 37 219 6 147 5 153 -13 148 -89 -25 -195 -28
-869 -25 l-710 3 -48 23 c-27 12 -52 22 -56 22 -4 0 -22 -46 -39 -102z"/>
<path d="M2792 3845 c-17 -38 -15 -50 6 -32 19 17 64 21 93 9 15 -6 14 -18 -7
-122 -30 -143 -29 -140 -56 -140 -37 0 -7 -17 50 -27 55 -11 63 -8 35 12 -16
12 -16 21 7 139 13 69 28 126 34 126 34 0 84 -23 92 -41 9 -20 11 -19 21 13 9
31 8 35 -6 31 -21 -5 -223 35 -235 47 -15 15 -22 12 -34 -15z"/>
<path d="M7215 3829 c-96 -21 -89 -18 -67 -37 14 -12 26 -50 42 -131 21 -111
21 -115 3 -129 -16 -13 -13 -14 32 -9 122 15 175 47 175 107 0 30 -6 43 -26
59 -15 12 -33 21 -40 21 -10 0 -10 6 2 28 20 35 5 78 -31 92 -30 11 -35 11
-90 -1z m70 -34 c14 -13 25 -29 25 -35 0 -24 -21 -48 -50 -59 -34 -11 -40 -4
-54 71 -5 30 -3 37 11 41 35 9 44 7 68 -18z m58 -132 c9 -9 17 -30 17 -49 0
-27 -6 -36 -30 -49 -61 -32 -82 -16 -96 75 -6 35 -4 39 17 43 34 7 71 -2 92
-20z"/>
<path d="M3110 3789 c0 -5 5 -9 10 -9 13 0 13 -55 0 -122 -26 -131 -32 -148
-48 -148 -31 -1 9 -17 58 -24 44 -7 45 -7 23 11 -20 17 -20 22 -10 76 9 52 13
58 31 53 12 -3 52 -10 89 -17 l69 -11 -7 -52 c-8 -56 -19 -76 -44 -77 -27 -1
18 -15 68 -22 42 -5 43 -5 24 13 -20 18 -20 20 -2 130 21 133 23 140 46 140
32 1 -7 17 -57 24 -41 5 -43 5 -26 -9 16 -12 17 -22 11 -70 l-7 -57 -31 6
c-18 3 -53 8 -78 11 -25 4 -51 10 -58 15 -18 10 -5 86 19 110 17 17 16 18 -31
27 -27 6 -49 6 -49 2z"/>
<path d="M7016 3793 l-29 -5 23 -11 c29 -15 50 -84 53 -175 2 -59 0 -66 -26
-88 -38 -32 -90 -32 -122 0 -27 27 -41 72 -51 164 -6 55 -4 65 12 78 18 15 18
15 -1 10 -11 -2 -40 -8 -64 -11 -41 -7 -42 -8 -20 -19 17 -8 26 -24 31 -56 35
-194 45 -210 131 -210 40 0 63 6 88 23 49 33 56 69 34 184 -17 93 -17 97 1
110 17 12 16 13 -7 12 -13 -1 -37 -4 -53 -6z"/>
<path d="M3494 3717 c17 -13 17 -18 -1 -138 -17 -114 -20 -124 -41 -127 -47
-7 -18 -19 76 -31 53 -7 105 -14 114 -17 11 -3 22 5 32 24 18 34 9 51 -11 22
-11 -15 -26 -20 -62 -20 -71 0 -86 15 -78 80 4 29 9 55 11 58 3 2 21 1 41 -2
24 -5 39 -15 45 -29 6 -15 9 -17 9 -6 1 9 4 32 7 50 6 31 5 32 -8 16 -10 -13
-24 -18 -48 -15 l-35 3 1 58 c1 32 4 60 6 63 11 11 94 -16 111 -37 l17 -21 0
29 c0 30 0 30 -82 41 -46 7 -92 12 -102 12 -19 0 -19 -1 -2 -13z"/>
<path d="M6583 3721 c-43 -7 -70 -21 -40 -21 23 0 25 -6 42 -119 19 -128 19
-151 0 -151 -8 0 -15 -5 -15 -11 0 -7 9 -9 23 -6 12 3 60 11 107 17 47 6 86
12 86 13 1 1 5 17 9 35 4 20 3 32 -4 32 -6 0 -11 -7 -11 -15 0 -32 -94 -64
-123 -42 -10 8 -21 50 -32 126 -15 105 -15 116 -1 127 17 12 21 25 9 23 -5 -1
-27 -5 -50 -8z"/>
<path d="M6310 3678 c-59 -31 -82 -66 -88 -130 -5 -62 21 -109 77 -142 69 -40
213 -16 223 38 7 35 -6 42 -20 11 -25 -54 -118 -70 -178 -30 -58 38 -74 160
-28 214 46 55 135 63 173 15 23 -29 33 -21 19 17 -10 28 -12 29 -72 29 -44 0
-74 -6 -106 -22z"/>
<path d="M3879 3669 c20 -8 22 -14 17 -39 -13 -70 -18 -186 -7 -213 21 -54
142 -77 194 -37 31 24 43 62 52 155 8 90 13 105 33 106 33 1 -21 18 -58 18
-33 0 -34 -1 -11 -12 23 -11 23 -14 17 -95 -11 -135 -33 -172 -100 -172 -77 1
-101 40 -92 149 10 117 14 131 39 132 43 1 -15 18 -63 18 -38 0 -42 -2 -21
-10z"/>
<path d="M5993 3653 c-12 -2 -25 -14 -29 -26 -14 -48 -87 -217 -93 -217 -8 0
-121 194 -121 209 0 6 -17 11 -42 11 -41 0 -42 0 -20 -16 21 -14 22 -23 22
-134 0 -111 -1 -120 -22 -134 -22 -15 -20 -16 30 -16 52 0 70 13 32 23 -18 5
-20 14 -20 109 l0 103 66 -119 67 -118 50 120 c28 67 54 119 58 117 3 -3 10
-46 14 -97 6 -82 5 -93 -11 -105 -16 -11 -12 -13 27 -13 51 0 83 14 51 22 -22
6 -29 38 -39 176 -5 81 -4 92 10 92 10 0 17 5 17 10 0 10 -8 11 -47 3z"/>
<path d="M4228 3632 c23 -18 23 -19 13 -133 -6 -63 -11 -118 -11 -122 0 -4
-10 -12 -22 -17 -23 -9 -23 -9 -2 -9 12 -1 37 -4 55 -7 33 -5 33 -5 14 11 -17
13 -20 26 -18 83 2 37 6 85 9 106 6 37 7 39 20 20 60 -83 190 -241 196 -238 5
3 8 44 8 92 0 120 10 192 26 192 7 0 16 5 19 10 4 6 -14 10 -46 10 -46 0 -50
-2 -35 -13 10 -7 18 -26 19 -42 3 -68 -4 -165 -10 -165 -8 1 -150 178 -174
218 -10 16 -23 22 -49 22 l-35 0 23 -18z"/>
<path d="M4580 3621 c0 -6 7 -11 15 -11 12 0 15 -20 15 -119 0 -135 -4 -151
-34 -151 -17 0 -18 -2 -6 -10 8 -5 38 -10 65 -10 39 1 46 3 33 11 -16 9 -18
26 -18 134 0 117 1 125 22 139 21 15 21 16 3 16 -11 0 -37 3 -57 6 -25 5 -38
3 -38 -5z"/>
<path d="M4759 3599 c15 -15 21 -28 17 -43 -3 -11 -6 -65 -6 -119 0 -92 -1
-98 -22 -107 -19 -7 -14 -9 24 -9 25 -1 53 -4 62 -7 9 -3 16 -2 16 4 0 5 -9
12 -20 15 -17 4 -20 14 -20 66 l0 61 40 0 c29 0 43 -5 52 -20 19 -30 25 -25
26 25 0 44 -10 59 -22 30 -4 -10 -20 -15 -51 -15 l-45 0 0 60 0 60 49 0 c40 0
53 -4 65 -22 16 -22 16 -22 16 10 l0 32 -102 0 -102 0 23 -21z"/>
<path d="M5070 3598 c-77 -53 -98 -130 -58 -208 29 -57 72 -81 142 -82 128 -1
203 120 146 233 -28 55 -71 79 -141 79 -42 0 -65 -6 -89 -22z m126 -3 c65 -27
97 -153 55 -221 -28 -46 -73 -61 -125 -43 -105 36 -116 230 -15 266 44 15 44
15 85 -2z"/>
<path d="M5370 3614 c0 -4 6 -12 14 -18 10 -8 16 -47 21 -133 7 -122 7 -123
-17 -132 -18 -8 -8 -10 42 -10 54 0 61 2 43 11 -13 6 -23 18 -23 27 0 9 -3 33
-6 54 -6 34 -5 37 17 37 17 0 41 -19 79 -60 39 -42 65 -62 88 -66 40 -8 41 6
3 27 -15 9 -43 37 -60 63 l-32 47 25 30 c33 38 33 73 1 104 -22 23 -32 25
-110 25 -47 0 -85 -3 -85 -6z m160 -30 c7 -7 14 -30 14 -50 0 -43 -23 -64 -71
-64 l-33 0 0 64 c0 42 4 66 13 70 18 7 60 -3 77 -20z"/>
</g>
</svg>
